<?xml version="1.0" standalone="no"?>
<!DOCTYPE svg PUBLIC "-//W3C//DTD SVG 20010904//EN"
 "http://www.w3.org/TR/2001/REC-SVG-20010904/DTD/svg10.dtd">
<svg version="1.0" xmlns="http://www.w3.org/2000/svg"
 width="693.000000pt" height="360.000000pt" viewBox="0 0 693.000000 360.000000"
 preserveAspectRatio="xMidYMid meet">

<g transform="translate(0.000000,360.000000) scale(0.100000,-0.100000)"
fill="#000000" stroke="none">
<path d="M1580 3540 c-469 -49 -874 -471 -922 -961 -33 -341 77 -653 315 -888
132 -130 271 -216 437 -270 407 -131 864 7 1147 345 236 284 313 683 198 1030
-41 121 -140 299 -204 365 -156 162 -207 202 -366 282 -175 89 -373 120 -605
97z"/>
<path d="M3300 3544 c-169 -32 -296 -81 -420 -161 -92 -60 -134 -94 -179 -146
l-29 -33 40 -59 c153 -231 218 -471 204 -755 -10 -221 -68 -392 -200 -599
l-47 -74 33 -34 c61 -64 189 -153 292 -203 302 -148 649 -144 951 11 111 56
187 114 281 210 97 101 152 181 210 305 138 295 136 628 -5 930 -131 279 -396
501 -693 581 -77 21 -121 25 -253 28 -88 2 -171 1 -185 -1z"/>
<path d="M4932 3520 c-66 -16 -150 -46 -206 -74 -91 -44 -241 -152 -300 -215
l-29 -30 40 -58 c239 -342 279 -818 99 -1188 -25 -49 -65 -121 -91 -159 l-46
-69 33 -35 c102 -107 284 -220 438 -271 155 -51 343 -64 506 -36 357 63 657
296 810 632 102 221 121 531 48 765 -122 391 -439 678 -831 753 -48 9 -133 15
-218 14 -119 0 -157 -5 -253 -29z"/>
<path d="M4546 1121 c-3 -5 20 -24 51 -41 240 -135 444 -368 543 -620 29 -75
60 -194 76 -294 8 -49 15 -91 17 -93 10 -9 1627 -7 1627 2 0 42 -34 222 -52
275 -94 286 -297 524 -558 655 -47 23 -123 54 -169 69 -162 51 -239 56 -912
56 -358 0 -620 -4 -623 -9z"/>
<path d="M949 1105 c-407 -76 -761 -403 -863 -799 -13 -50 -27 -124 -31 -163
l-7 -73 1660 0 c1402 0 1661 2 1671 14 9 10 9 32 0 87 -26 169 -108 362 -214
501 -154 204 -364 344 -620 415 l-100 27 -710 3 c-575 1 -724 -1 -786 -12z"/>
<path d="M2820 1116 c0 -3 19 -15 43 -27 84 -43 204 -135 290 -223 130 -134
230 -294 288 -464 23 -65 59 -249 59 -298 l0 -34 806 0 807 0 -6 73 c-14 159
-106 390 -212 531 -66 88 -180 198 -264 255 -87 59 -231 127 -337 158 l-89 27
-692 4 c-381 1 -693 1 -693 -2z"/>
</g>
</svg>
